<svg xmlns="http://www.w3.org/2000/svg" width="265" height="265" viewBox="0 0 265 265"><defs><style>.a{fill:#88abcb;stroke:rgba(0,0,0,0);stroke-miterlimit:10;}</style></defs><path class="a" d="M432.261,865.8v-2.338h5.606c.988,0,1.865-.022,2.633-.1V865.8Zm-24.173,0a5.682,5.682,0,0,1,2.85-2.284.119.119,0,0,0-.04-.23h-1.154c-1.824,0-2.711-.85-2.711-2.6v-6.913h0V842.924H394.583v-3.812h5.606c4.647,0,6.836-.478,6.836-4.843,0-2.155-.521-3.415-1.69-4.083-1.108-.633-2.79-.759-5.146-.759H389.011c-5.492,0-11.108-.964-11.108-8.118,0-3.288,1.341-5.5,3.9-6.491a.119.119,0,0,0-.04-.23h-1.154c-1.824,0-2.711-.849-2.711-2.6V805.08h0V794.229H365.449v-3.811h5.606c4.647,0,6.837-.479,6.837-4.843,0-2.156-.521-3.416-1.69-4.084-1.108-.632-2.791-.759-5.147-.759H359.879c-5.493,0-11.108-.963-11.108-8.117,0-3.289,1.342-5.5,3.9-6.492a.119.119,0,0,0-.041-.23h-1.154c-1.824,0-2.711-.849-2.711-2.6v-6.913h-.029V745.533H336.291v-3.812H341.9c4.648,0,6.837-.479,6.837-4.843,0-2.156-.521-3.416-1.69-4.084-1.108-.632-2.79-.759-5.147-.759H330.72c-5.493,0-11.108-.964-11.108-8.117,0-3.289,1.342-5.5,3.9-6.492a.119.119,0,0,0-.041-.23h-1.154c-1.824,0-2.711-.85-2.711-2.6v-6.913h0V696.836H307.157v-3.812h5.607c4.647,0,6.836-.478,6.836-4.842,0-2.156-.521-3.416-1.69-4.083-1.108-.633-2.791-.76-5.146-.76h-5.571v0h-5.607c-5.492,0-11.108-.963-11.108-8.117,0-3.289,1.342-5.5,3.9-6.492a.119.119,0,0,0-.041-.23h-1.154c-1.824,0-2.711-.849-2.711-2.6v-6.913h0V648.141H278.025V644.33h5.606c4.647,0,6.837-.478,6.837-4.843,0-2.155-.522-3.416-1.691-4.083-1.108-.633-2.79-.759-5.146-.759H272.454c-5.493,0-11.108-.964-11.108-8.117,0-3.289,1.341-5.5,3.9-6.492a.119.119,0,0,0-.041-.23h-1.154c-1.824,0-2.711-.85-2.711-2.6V610.3h0v-8.5h4.271v4.685h0v10.852h12.446v3.812h-5.606c-4.647,0-6.837.477-6.837,4.843,0,2.155.521,3.415,1.69,4.083,1.108.633,2.79.76,5.147.76h5.57v0h5.606c5.493,0,11.108.964,11.108,8.118,0,3.288-1.342,5.5-3.9,6.492a.119.119,0,0,0,.041.23h1.154c1.824,0,2.711.849,2.711,2.6v6.912h0v10.852h12.447v3.812h-5.607c-4.647,0-6.836.478-6.836,4.843,0,2.156.521,3.416,1.69,4.084,1.108.633,2.791.759,5.146.759h5.571v0h5.607c5.493,0,11.108.964,11.108,8.118,0,3.288-1.341,5.5-3.9,6.491a.119.119,0,0,0,.041.231h1.154c1.824,0,2.711.85,2.711,2.6v6.913h0v10.852h12.446v3.812H330.72c-4.647,0-6.836.477-6.836,4.841,0,2.157.521,3.416,1.69,4.084,1.108.633,2.79.759,5.146.759H341.9c5.493,0,11.108.963,11.108,8.117,0,3.289-1.341,5.5-3.9,6.492a.119.119,0,0,0,.04.231H350.3c1.824,0,2.711.849,2.711,2.6v6.913h.03v10.852h12.446v3.811h-5.606c-4.647,0-6.837.479-6.837,4.843,0,2.157.521,3.416,1.69,4.084,1.108.633,2.791.759,5.147.759h11.176c5.493,0,11.108.963,11.108,8.117,0,3.289-1.342,5.5-3.9,6.492a.119.119,0,0,0,.042.231h1.154c1.824,0,2.711.849,2.711,2.6v6.912h0v10.852h12.447v3.812h-5.607c-4.647,0-6.835.478-6.835,4.843,0,2.155.521,3.415,1.69,4.083,1.108.633,2.79.759,5.145.759h11.178c5.493,0,11.108.964,11.108,8.118,0,3.288-1.341,5.5-3.9,6.491a.119.119,0,0,0,.04.23h1.154c1.824,0,2.711.849,2.711,2.6v6.913h0v10.851h12.446v3.812h-5.605c-2.718,0-4.6.164-5.685,1.173Zm-22.051,0v-2.338h5.606c4.647,0,6.837-.479,6.837-4.843,0-2.156-.522-3.416-1.691-4.084-1.108-.633-2.79-.759-5.146-.759H380.467c-5.493,0-11.108-.964-11.108-8.118,0-3.288,1.341-5.5,3.9-6.491a.119.119,0,0,0-.042-.23h-1.154c-1.824,0-2.711-.85-2.711-2.6v-6.913h0V818.576H356.9v-3.812h5.607c4.647,0,6.836-.478,6.836-4.843,0-2.155-.522-3.415-1.691-4.083-1.108-.632-2.79-.759-5.145-.759H356.94v0h-5.606c-5.493,0-11.108-.963-11.108-8.117,0-3.289,1.341-5.5,3.9-6.492a.119.119,0,0,0-.04-.23h-1.154c-1.824,0-2.711-.849-2.711-2.6v-6.913h0V769.881H327.771V766.07h5.607c4.647,0,6.836-.478,6.836-4.843,0-2.155-.521-3.416-1.69-4.084-1.108-.632-2.79-.759-5.146-.759h-11.2c-5.492,0-11.108-.963-11.108-8.117,0-3.29,1.34-5.5,3.9-6.492a.119.119,0,0,0-.041-.23h-1.154c-1.824,0-2.711-.849-2.711-2.6v-6.913h0V721.185H298.612v-3.812h5.605c4.648,0,6.837-.478,6.837-4.843,0-2.155-.521-3.415-1.69-4.083-1.108-.633-2.79-.76-5.147-.76H293.042c-5.493,0-11.108-.964-11.108-8.117,0-3.289,1.341-5.5,3.9-6.492a.119.119,0,0,0-.041-.23h-1.154c-1.824,0-2.711-.849-2.711-2.6v-6.912h0V672.49H269.479v-3.812h5.606c4.648,0,6.837-.479,6.837-4.843,0-2.156-.521-3.416-1.69-4.083-1.108-.633-2.79-.759-5.147-.759H263.908c-5.493,0-11.108-.963-11.108-8.117,0-3.289,1.342-5.5,3.9-6.492a.119.119,0,0,0-.04-.23h-1.154c-1.824,0-2.711-.849-2.711-2.6v-6.911h0V623.794H240.346v-3.812h5.607c4.647,0,6.836-.478,6.836-4.843,0-2.155-.521-3.415-1.69-4.083-1.108-.633-2.791-.76-5.146-.76h-5.571v0h-5.607c-5.492,0-11.108-.964-11.108-8.118q0-.193.006-.38h4.266c.025,2.061.549,3.276,1.689,3.928,1.108.633,2.791.759,5.146.759h11.178c5.493,0,11.108.964,11.108,8.117,0,3.289-1.342,5.5-3.9,6.492a.119.119,0,0,0,.041.23h1.154c1.824,0,2.711.85,2.711,2.6v6.911h0v10.852h12.447V645.5h-5.607c-4.647,0-6.837.478-6.837,4.843,0,2.156.523,3.416,1.691,4.083,1.108.633,2.79.759,5.145.759h11.177c5.493,0,11.108.964,11.108,8.117,0,3.289-1.34,5.5-3.9,6.492a.119.119,0,0,0,.04.23h1.154c1.824,0,2.711.849,2.711,2.6v6.911h0V690.38h12.446v3.812h-5.605c-4.648,0-6.837.478-6.837,4.842,0,2.156.521,3.415,1.69,4.083,1.108.633,2.79.759,5.147.759h11.175c5.493,0,11.108.964,11.108,8.118,0,3.288-1.341,5.5-3.9,6.491a.119.119,0,0,0,.041.231h1.154c1.824,0,2.711.849,2.711,2.6v6.913h0v10.852h12.448v3.811h-5.607c-4.647,0-6.836.479-6.836,4.843,0,2.157.521,3.416,1.69,4.084,1.108.633,2.79.759,5.146.759h11.2c5.493,0,11.108.963,11.108,8.118,0,3.288-1.341,5.5-3.9,6.491a.119.119,0,0,0,.04.231h1.154c1.824,0,2.711.849,2.711,2.6v6.913h0v10.852H356.94v3.811h-5.606c-4.647,0-6.836.478-6.836,4.843,0,2.157.521,3.416,1.69,4.084,1.108.633,2.79.759,5.146.759h5.57v0h5.607c5.492,0,11.107.964,11.107,8.118,0,3.288-1.339,5.5-3.9,6.491a.119.119,0,0,0,.041.23h1.154c1.824,0,2.711.85,2.711,2.6v6.913h0v10.851h12.446v3.812h-5.606c-4.647,0-6.837.478-6.837,4.842,0,2.156.521,3.416,1.69,4.084,1.108.632,2.79.759,5.147.759h11.176c5.493,0,11.108.963,11.108,8.117,0,3.29-1.342,5.5-3.9,6.492a.119.119,0,0,0,.041.23h1.154a2.529,2.529,0,0,1,2.328,1Zm-24.173,0a5.684,5.684,0,0,1,2.851-2.284.119.119,0,0,0-.04-.23h-1.154c-1.824,0-2.711-.85-2.711-2.6v-6.913h0V842.924H348.359v-3.812h5.606c4.647,0,6.837-.478,6.837-4.843,0-2.155-.521-3.415-1.69-4.083-1.108-.633-2.791-.759-5.147-.759H342.789c-5.493,0-11.108-.964-11.108-8.118,0-3.288,1.342-5.5,3.9-6.491a.119.119,0,0,0-.041-.23h-1.154c-1.824,0-2.711-.849-2.711-2.6V805.08h0V794.229H319.226v-3.811h5.606c4.647,0,6.837-.479,6.837-4.843,0-2.156-.522-3.416-1.691-4.084-1.108-.632-2.79-.759-5.146-.759H313.655c-5.493,0-11.108-.963-11.108-8.117,0-3.289,1.341-5.5,3.9-6.492a.119.119,0,0,0-.042-.23h-1.154c-1.824,0-2.711-.849-2.711-2.6v-6.913h-.029V745.533H290.067v-3.812h5.607c4.647,0,6.836-.479,6.836-4.843,0-2.156-.521-3.416-1.69-4.084-1.108-.632-2.791-.759-5.146-.759H284.5c-5.493,0-11.108-.964-11.108-8.117,0-3.289,1.342-5.5,3.9-6.492a.119.119,0,0,0-.041-.23h-1.154c-1.824,0-2.711-.85-2.711-2.6v-6.913h0V696.836H260.934v-3.812h5.607c4.647,0,6.837-.478,6.837-4.842,0-2.156-.523-3.416-1.691-4.083-1.108-.633-2.79-.76-5.145-.76h-5.571v0h-5.606c-5.493,0-11.108-.963-11.108-8.117,0-3.289,1.34-5.5,3.9-6.492a.119.119,0,0,0-.04-.23h-1.154c-1.824,0-2.711-.849-2.711-2.6v-6.913h0V648.141H231.8V644.33h5.605c4.648,0,6.837-.478,6.837-4.843,0-2.155-.521-3.416-1.69-4.083-1.108-.633-2.79-.759-5.147-.759H226.229c-5.493,0-11.108-.964-11.108-8.117,0-3.289,1.342-5.5,3.9-6.492a.119.119,0,0,0-.041-.23h-1.154c-1.824,0-2.711-.85-2.711-2.6V610.3h0v-8.5h4.271v4.685h0v10.852h12.446v3.812h-5.606c-4.647,0-6.836.477-6.836,4.843,0,2.155.521,3.415,1.69,4.083,1.108.633,2.79.76,5.146.76H231.8v0h5.605c5.493,0,11.108.964,11.108,8.118,0,3.288-1.341,5.5-3.9,6.492a.119.119,0,0,0,.041.23h1.154c1.824,0,2.711.849,2.711,2.6v6.912h0v10.852h12.448v3.812h-5.606c-4.648,0-6.837.478-6.837,4.843,0,2.156.521,3.416,1.69,4.084,1.108.633,2.79.759,5.147.759h5.57v0h5.607c5.493,0,11.108.964,11.108,8.118,0,3.288-1.342,5.5-3.9,6.491a.119.119,0,0,0,.04.231h1.154c1.824,0,2.711.85,2.711,2.6v6.913h0v10.852H290.1v3.812H284.5c-4.647,0-6.836.477-6.836,4.841,0,2.157.521,3.416,1.69,4.084,1.108.633,2.791.759,5.146.759h11.178c5.492,0,11.108.963,11.108,8.117,0,3.289-1.34,5.5-3.9,6.492a.119.119,0,0,0,.041.231h1.154c1.824,0,2.711.849,2.711,2.6v6.913h.029v10.852h12.447v3.811h-5.606c-4.648,0-6.837.479-6.837,4.843,0,2.157.521,3.416,1.69,4.084,1.108.633,2.79.759,5.147.759h11.176c5.493,0,11.108.963,11.108,8.117,0,3.289-1.342,5.5-3.9,6.492a.119.119,0,0,0,.04.231h1.154c1.824,0,2.711.849,2.711,2.6v6.912h0v10.852h12.447v3.812h-5.606c-4.647,0-6.837.478-6.837,4.843,0,2.155.521,3.415,1.69,4.083,1.108.633,2.791.759,5.147.759h11.176c5.493,0,11.108.964,11.108,8.118,0,3.288-1.342,5.5-3.9,6.491a.119.119,0,0,0,.042.23h1.154c1.824,0,2.71.849,2.71,2.6v6.913h0v10.851h12.447v3.812h-5.607c-2.717,0-4.594.164-5.684,1.173Zm-22.051,0v-2.338h5.605c4.648,0,6.837-.479,6.837-4.843,0-2.156-.521-3.416-1.69-4.084-1.108-.633-2.79-.759-5.147-.759H334.243c-5.493,0-11.108-.964-11.108-8.118,0-3.288,1.341-5.5,3.9-6.491a.119.119,0,0,0-.041-.23h-1.154c-1.824,0-2.711-.85-2.711-2.6v-6.913h0V818.576H310.68v-3.812h5.607c4.647,0,6.836-.478,6.836-4.843,0-2.155-.521-3.415-1.69-4.083-1.108-.632-2.79-.759-5.146-.759h-5.57v0H305.11c-5.493,0-11.108-.963-11.108-8.117,0-3.289,1.342-5.5,3.9-6.492a.119.119,0,0,0-.04-.23H296.71c-1.824,0-2.711-.849-2.711-2.6v-6.913h0V769.881H281.547V766.07h5.606c4.647,0,6.837-.478,6.837-4.843,0-2.155-.521-3.416-1.69-4.084-1.108-.632-2.791-.759-5.147-.759h-11.2c-5.493,0-11.108-.963-11.108-8.117,0-3.29,1.341-5.5,3.9-6.492a.119.119,0,0,0-.04-.23H267.55c-1.824,0-2.711-.849-2.711-2.6v-6.913h0V721.185H252.388v-3.812h5.606c4.647,0,6.837-.478,6.837-4.843,0-2.155-.521-3.415-1.69-4.083-1.108-.633-2.79-.76-5.147-.76H246.817c-5.493,0-11.108-.964-11.108-8.117,0-3.289,1.342-5.5,3.9-6.492a.119.119,0,0,0-.041-.23h-1.153c-1.825,0-2.711-.849-2.711-2.6v-6.912h0V672.49H223.255v-3.812h5.607c4.647,0,6.836-.479,6.836-4.843,0-2.156-.521-3.416-1.69-4.083-1.108-.633-2.791-.759-5.146-.759H217.684c-5.493,0-11.108-.963-11.108-8.117,0-3.289,1.341-5.5,3.9-6.492a.119.119,0,0,0-.041-.23h-1.154c-1.824,0-2.711-.849-2.711-2.6v-6.911h0V623.794H194.122v-3.812h5.606c4.647,0,6.836-.478,6.836-4.843,0-2.155-.521-3.415-1.69-4.083-1.108-.633-2.79-.76-5.146-.76h-5.571v0h-5.605c-5.493,0-11.108-.964-11.108-8.118q0-.193.006-.38h4.266c.025,2.061.549,3.276,1.689,3.928,1.108.633,2.79.759,5.147.759h11.176c5.493,0,11.108.964,11.108,8.117,0,3.289-1.342,5.5-3.9,6.492a.119.119,0,0,0,.041.23h1.154c1.824,0,2.711.85,2.711,2.6v6.911h0v10.852h12.447V645.5h-5.607c-4.647,0-6.836.478-6.836,4.843,0,2.156.521,3.416,1.69,4.083,1.108.633,2.791.759,5.146.759h11.178c5.492,0,11.108.964,11.108,8.117,0,3.289-1.342,5.5-3.9,6.492a.119.119,0,0,0,.041.23h1.154c1.824,0,2.711.849,2.711,2.6v6.911h0V690.38h12.445v3.812h-5.606c-4.647,0-6.837.478-6.837,4.842,0,2.156.522,3.415,1.691,4.083,1.108.633,2.79.759,5.146.759h11.176c5.493,0,11.108.964,11.108,8.118,0,3.288-1.341,5.5-3.9,6.491a.119.119,0,0,0,.041.231H266.4c1.824,0,2.711.849,2.711,2.6v6.913h0v10.852h12.447v3.811h-5.605c-4.648,0-6.837.479-6.837,4.843,0,2.157.521,3.416,1.69,4.084,1.108.633,2.79.759,5.147.759h11.2c5.493,0,11.108.963,11.108,8.118,0,3.288-1.342,5.5-3.9,6.491a.119.119,0,0,0,.042.231h1.154c1.824,0,2.71.849,2.71,2.6v6.913h0v10.852h12.447v3.811H305.11c-4.647,0-6.836.478-6.836,4.843,0,2.157.522,3.416,1.691,4.084,1.108.633,2.79.759,5.145.759h5.57v0h5.607c5.493,0,11.108.964,11.108,8.118,0,3.288-1.341,5.5-3.9,6.491a.119.119,0,0,0,.041.23h1.154c1.824,0,2.711.85,2.711,2.6v6.913h0v10.851h12.446v3.812h-5.605c-4.648,0-6.837.478-6.837,4.842,0,2.156.521,3.416,1.69,4.084,1.108.632,2.79.759,5.147.759h11.176c5.493,0,11.108.963,11.108,8.117,0,3.29-1.341,5.5-3.9,6.492a.119.119,0,0,0,.04.23h1.154a2.529,2.529,0,0,1,2.328,1Zm-24.173,0a5.682,5.682,0,0,1,2.85-2.284.119.119,0,0,0-.041-.23H317.3c-1.824,0-2.711-.85-2.711-2.6v-6.913h0V842.924H302.135v-3.812h5.606c4.647,0,6.837-.478,6.837-4.843,0-2.155-.522-3.415-1.691-4.083-1.108-.633-2.79-.759-5.146-.759H296.565c-5.493,0-11.108-.964-11.108-8.118,0-3.288,1.341-5.5,3.9-6.491a.119.119,0,0,0-.04-.23h-1.154c-1.824,0-2.711-.849-2.711-2.6V805.08h0V794.229H273v-3.811h5.605c4.648,0,6.837-.479,6.837-4.843,0-2.156-.521-3.416-1.69-4.084-1.108-.632-2.79-.759-5.147-.759H267.431c-5.493,0-11.108-.963-11.108-8.117,0-3.289,1.342-5.5,3.9-6.492a.119.119,0,0,0-.04-.23h-1.154c-1.824,0-2.711-.849-2.711-2.6v-6.913h-.03V745.533H243.842v-3.812h5.607c4.647,0,6.837-.479,6.837-4.843,0-2.156-.523-3.416-1.691-4.084-1.108-.632-2.79-.759-5.145-.759H238.272c-5.492,0-11.108-.964-11.108-8.117,0-3.289,1.341-5.5,3.9-6.492a.119.119,0,0,0-.04-.23h-1.154c-1.824,0-2.711-.85-2.711-2.6v-6.913h0V696.836H214.71v-3.812h5.605c4.648,0,6.837-.478,6.837-4.842,0-2.156-.521-3.416-1.69-4.083-1.108-.633-2.79-.76-5.147-.76h-5.57v0h-5.606c-5.493,0-11.108-.963-11.108-8.117,0-3.289,1.342-5.5,3.9-6.492a.119.119,0,0,0-.04-.23h-1.154c-1.824,0-2.711-.849-2.711-2.6v-6.913h0V648.141H185.576V644.33h5.606c4.647,0,6.837-.478,6.837-4.843,0-2.155-.521-3.416-1.69-4.083-1.108-.633-2.791-.759-5.147-.759H180.006a28.627,28.627,0,0,1-3.506-.186V630.62a20.793,20.793,0,0,0,3.506.214h5.57v0h5.606c5.493,0,11.108.964,11.108,8.118,0,3.288-1.342,5.5-3.9,6.492a.119.119,0,0,0,.041.23h1.154c1.824,0,2.711.849,2.711,2.6v6.912h0v10.852h12.446v3.812h-5.606c-4.647,0-6.836.478-6.836,4.843,0,2.156.521,3.416,1.69,4.084,1.108.633,2.79.759,5.146.759h5.571v0h5.605c5.493,0,11.108.964,11.108,8.118,0,3.288-1.341,5.5-3.9,6.491a.119.119,0,0,0,.041.231h1.154c1.824,0,2.711.85,2.711,2.6v6.913h0v10.852h12.448v3.812h-5.607c-4.647,0-6.836.477-6.836,4.841,0,2.157.521,3.416,1.69,4.084,1.108.633,2.79.759,5.146.759h11.177c5.493,0,11.108.963,11.108,8.117,0,3.289-1.341,5.5-3.9,6.492a.119.119,0,0,0,.041.231h1.154c1.824,0,2.711.849,2.711,2.6v6.913h.031v10.852h12.446v3.811h-5.606c-4.647,0-6.836.479-6.836,4.843,0,2.157.522,3.416,1.691,4.084,1.108.633,2.79.759,5.145.759h11.176c5.493,0,11.108.963,11.108,8.117,0,3.289-1.34,5.5-3.9,6.492a.119.119,0,0,0,.04.231h1.154c1.824,0,2.711.849,2.711,2.6v6.912h0v10.852h12.447v3.812h-5.606c-4.648,0-6.837.478-6.837,4.843,0,2.155.521,3.415,1.69,4.083,1.108.633,2.79.759,5.147.759h11.176c5.493,0,11.108.964,11.108,8.118,0,3.288-1.342,5.5-3.9,6.491a.119.119,0,0,0,.041.23h1.154c1.824,0,2.711.849,2.711,2.6v6.913h0v10.851H331.3v3.812H325.7c-2.717,0-4.594.164-5.685,1.173Zm-22.052,0v-2.338H299.2c4.647,0,6.836-.479,6.836-4.843,0-2.156-.521-3.416-1.69-4.084-1.108-.633-2.79-.759-5.146-.759H288.019c-5.493,0-11.108-.964-11.108-8.118,0-3.288,1.342-5.5,3.9-6.491a.119.119,0,0,0-.04-.23h-1.154c-1.824,0-2.711-.85-2.711-2.6v-6.913h0V818.576H264.456v-3.812h5.607c4.647,0,6.836-.478,6.836-4.843,0-2.155-.522-3.415-1.691-4.083-1.108-.632-2.79-.759-5.145-.759h-5.57v0h-5.606c-5.493,0-11.108-.963-11.108-8.117,0-3.289,1.34-5.5,3.9-6.492a.119.119,0,0,0-.041-.23h-1.154c-1.824,0-2.711-.849-2.711-2.6v-6.913h0V769.881H235.324V766.07h5.606c4.647,0,6.836-.478,6.836-4.843,0-2.155-.521-3.416-1.69-4.084-1.108-.632-2.79-.759-5.146-.759h-11.2c-5.493,0-11.108-.963-11.108-8.117,0-3.29,1.342-5.5,3.9-6.492a.119.119,0,0,0-.041-.23h-1.154c-1.824,0-2.711-.849-2.711-2.6v-6.913h0V721.185H206.164v-3.812h5.606c4.647,0,6.837-.478,6.837-4.843,0-2.155-.522-3.415-1.691-4.083-1.108-.633-2.79-.76-5.146-.76H200.594c-5.493,0-11.108-.964-11.108-8.117,0-3.289,1.341-5.5,3.9-6.492a.119.119,0,0,0-.041-.23h-1.154c-1.824,0-2.711-.849-2.711-2.6v-6.912h0V672.49H177.031v-3.812h5.607c4.647,0,6.835-.479,6.835-4.843,0-2.156-.521-3.416-1.69-4.083-1.108-.633-2.79-.759-5.145-.759H176.5v-3.812h6.138c5.493,0,11.108.964,11.108,8.117,0,3.289-1.342,5.5-3.9,6.492a.119.119,0,0,0,.04.23h1.154c1.824,0,2.711.849,2.711,2.6v6.911h0V690.38H206.2v3.812h-5.607c-4.647,0-6.837.478-6.837,4.842,0,2.156.522,3.415,1.691,4.083,1.108.633,2.791.759,5.146.759H211.77c5.493,0,11.108.964,11.108,8.118,0,3.288-1.341,5.5-3.9,6.491a.119.119,0,0,0,.04.231h1.154c1.824,0,2.711.849,2.711,2.6v6.913h0v10.852h12.446v3.811h-5.606c-4.647,0-6.837.479-6.837,4.843,0,2.157.522,3.416,1.691,4.084,1.108.633,2.79.759,5.146.759h11.2c5.493,0,11.108.963,11.108,8.118,0,3.288-1.342,5.5-3.9,6.491a.119.119,0,0,0,.041.231h1.154c1.824,0,2.711.849,2.711,2.6v6.913h0v10.852h12.447v3.811h-5.606c-4.647,0-6.837.478-6.837,4.843,0,2.157.521,3.416,1.69,4.084,1.108.633,2.791.759,5.147.759h5.569v0h5.607c5.493,0,11.108.964,11.108,8.118,0,3.288-1.342,5.5-3.9,6.491a.119.119,0,0,0,.04.23h1.154c1.824,0,2.711.85,2.711,2.6v6.913h0v10.851h12.447v3.812h-5.607c-4.647,0-6.836.478-6.836,4.842,0,2.156.522,3.416,1.691,4.084,1.108.632,2.79.759,5.145.759H299.2c5.492,0,11.108.963,11.108,8.117,0,3.29-1.34,5.5-3.9,6.492a.119.119,0,0,0,.041.23H307.6a2.529,2.529,0,0,1,2.328,1Zm-24.172,0a5.681,5.681,0,0,1,2.85-2.284.119.119,0,0,0-.04-.23h-1.154c-1.824,0-2.711-.85-2.711-2.6v-6.913h0V842.924H255.912v-3.812h5.605c4.648,0,6.837-.478,6.837-4.843,0-2.155-.521-3.415-1.69-4.083-1.108-.633-2.79-.759-5.147-.759H250.341c-5.493,0-11.108-.964-11.108-8.118,0-3.288,1.342-5.5,3.9-6.491a.119.119,0,0,0-.041-.23H241.94c-1.824,0-2.711-.849-2.711-2.6V805.08h0V794.229H226.778v-3.811h5.607c4.647,0,6.836-.479,6.836-4.843,0-2.156-.521-3.416-1.69-4.084-1.108-.632-2.791-.759-5.146-.759H221.208c-5.494,0-11.108-.963-11.108-8.117,0-3.289,1.341-5.5,3.9-6.492a.119.119,0,0,0-.041-.23h-1.152c-1.825,0-2.711-.849-2.711-2.6v-6.913h-.031V745.533H197.618v-3.812h5.607c4.647,0,6.837-.479,6.837-4.843,0-2.156-.522-3.416-1.691-4.084-1.108-.632-2.79-.759-5.146-.759H192.049c-5.493,0-11.108-.964-11.108-8.117,0-3.289,1.341-5.5,3.9-6.492a.119.119,0,0,0-.04-.23h-1.154c-1.824,0-2.711-.85-2.711-2.6v-6.913h0V696.836H176.5v-3.889c3-.25,4.429-1.239,4.429-4.765,0-2.156-.521-3.416-1.69-4.083a6.643,6.643,0,0,0-2.739-.684v-3.809c4.612.337,8.7,1.935,8.7,8.039,0,3.288-1.342,5.5-3.9,6.491a.119.119,0,0,0,.042.231h1.154c1.824,0,2.711.85,2.711,2.6v6.913h0v10.852h12.447v3.812h-5.606c-4.647,0-6.836.477-6.836,4.841,0,2.157.521,3.416,1.69,4.084,1.108.633,2.79.759,5.146.759h11.176c5.493,0,11.108.963,11.108,8.117,0,3.289-1.341,5.5-3.9,6.492a.119.119,0,0,0,.04.231h1.154c1.824,0,2.711.849,2.711,2.6v6.913h.03v10.852h12.447v3.811h-5.606c-4.647,0-6.837.479-6.837,4.843,0,2.157.521,3.416,1.69,4.084,1.108.633,2.791.759,5.147.759h11.177c5.492,0,11.108.963,11.108,8.117,0,3.289-1.341,5.5-3.9,6.492a.119.119,0,0,0,.041.231h1.154c1.824,0,2.711.849,2.711,2.6v6.912h0v10.852h12.446v3.812h-5.606c-4.647,0-6.836.478-6.836,4.843,0,2.155.521,3.415,1.69,4.083,1.108.633,2.79.759,5.146.759h11.176c5.493,0,11.108.964,11.108,8.118,0,3.288-1.341,5.5-3.9,6.491a.119.119,0,0,0,.04.23h1.154c1.824,0,2.711.849,2.711,2.6v6.913h0v10.851h12.448v3.812h-5.606c-2.718,0-4.6.164-5.686,1.173Zm-22.052,0v-2.338h5.607c4.647,0,6.836-.479,6.836-4.843,0-2.156-.522-3.416-1.691-4.084-1.108-.633-2.79-.759-5.145-.759H241.795c-5.493,0-11.108-.964-11.108-8.118,0-3.288,1.341-5.5,3.9-6.491a.119.119,0,0,0-.041-.23h-1.154c-1.824,0-2.711-.85-2.711-2.6v-6.913h0V818.576H218.233v-3.812h5.606c4.647,0,6.836-.478,6.836-4.843,0-2.155-.521-3.415-1.69-4.083-1.108-.632-2.79-.759-5.146-.759h-5.571v0h-5.605c-5.493,0-11.108-.963-11.108-8.117,0-3.289,1.341-5.5,3.9-6.492a.119.119,0,0,0-.04-.23h-1.154c-1.824,0-2.711-.849-2.711-2.6v-6.913h0V769.881H189.1V766.07h5.606c4.648,0,6.837-.478,6.837-4.843,0-2.155-.521-3.416-1.69-4.084-1.108-.632-2.79-.759-5.147-.759H183.5a17.9,17.9,0,0,1-7-1.077V720.193a3.554,3.554,0,0,1,.159,1.118v6.913h0v10.852H189.11v3.811H183.5c-4.647,0-6.837.479-6.837,4.843,0,2.157.521,3.416,1.69,4.084,1.108.633,2.79.759,5.147.759h11.2c5.493,0,11.108.963,11.108,8.118,0,3.288-1.341,5.5-3.9,6.491a.119.119,0,0,0,.04.231h1.154c1.824,0,2.711.849,2.711,2.6v6.913h0v10.852h12.447v3.811h-5.605c-4.648,0-6.837.478-6.837,4.843,0,2.157.521,3.416,1.69,4.084,1.108.633,2.79.759,5.147.759h5.57v0h5.606c5.493,0,11.108.964,11.108,8.118,0,3.288-1.342,5.5-3.9,6.491a.119.119,0,0,0,.041.23h1.154c1.824,0,2.711.85,2.711,2.6v6.913h0v10.851H247.4v3.812h-5.607c-4.647,0-6.836.478-6.836,4.842,0,2.156.521,3.416,1.69,4.084,1.108.632,2.79.759,5.146.759h11.178c5.493,0,11.108.963,11.108,8.117,0,3.29-1.342,5.5-3.9,6.492a.119.119,0,0,0,.04.23h1.154a2.529,2.529,0,0,1,2.328,1Zm-24.173,0a5.684,5.684,0,0,1,2.85-2.284.119.119,0,0,0-.04-.23H224.85c-1.825,0-2.711-.85-2.711-2.6v-6.913h0V842.924H209.688v-3.812h5.606c4.647,0,6.837-.478,6.837-4.843,0-2.155-.521-3.415-1.69-4.083-1.108-.633-2.791-.759-5.147-.759H204.117c-5.493,0-11.108-.964-11.108-8.118,0-3.288,1.342-5.5,3.9-6.491a.119.119,0,0,0-.041-.23h-1.154c-1.824,0-2.711-.849-2.711-2.6V805.08h0V794.229H180.554v-3.811h5.607c4.647,0,6.836-.479,6.836-4.843,0-2.156-.522-3.416-1.691-4.084-1.108-.632-2.79-.759-5.145-.759H176.5v-3.812h9.661c5.493,0,11.108.963,11.108,8.117,0,3.289-1.342,5.5-3.9,6.492a.119.119,0,0,0,.04.231h1.154c1.824,0,2.711.849,2.711,2.6v6.912h0v10.852h12.446v3.812h-5.606c-4.647,0-6.837.478-6.837,4.843,0,2.155.522,3.415,1.691,4.083,1.108.633,2.791.759,5.146.759h11.177c5.493,0,11.108.964,11.108,8.118,0,3.288-1.34,5.5-3.9,6.491a.119.119,0,0,0,.041.23H223.7c1.824,0,2.711.849,2.711,2.6v6.913h0v10.851h12.445v3.812H233.25c-2.717,0-4.595.164-5.685,1.173Zm-22.051,0v-2.338h5.607c4.647,0,6.835-.479,6.835-4.843,0-2.156-.521-3.416-1.69-4.084-1.108-.633-2.79-.759-5.145-.759H195.572c-5.493,0-11.108-.964-11.108-8.118,0-3.288,1.34-5.5,3.9-6.491a.119.119,0,0,0-.04-.23h-1.154c-1.824,0-2.711-.85-2.711-2.6v-6.913h0V818.576H176.5v-3.812h1.115c4.647,0,6.837-.478,6.837-4.843,0-2.155-.521-3.415-1.69-4.083-1.108-.632-2.79-.759-5.147-.759H176.5v-3.812h1.115c5.493,0,11.108.964,11.108,8.118,0,3.288-1.341,5.5-3.9,6.491a.119.119,0,0,0,.042.23h1.154c1.824,0,2.711.85,2.711,2.6v6.913h0v10.851h12.447v3.812h-5.605c-4.648,0-6.837.478-6.837,4.842,0,2.156.521,3.416,1.69,4.084,1.108.632,2.79.759,5.147.759h11.177c5.493,0,11.108.963,11.108,8.117,0,3.29-1.342,5.5-3.9,6.492a.119.119,0,0,0,.04.23h1.154a2.529,2.529,0,0,1,2.328,1Zm-24.173,0a5.683,5.683,0,0,1,2.851-2.284.119.119,0,0,0-.042-.23h-1.154a2.743,2.743,0,0,1-2.125-.731v-22.1h.971c1.824,0,2.711.849,2.711,2.6v6.913h0v10.851h12.446v3.812h-5.606c-2.718,0-4.6.164-5.685,1.173Zm260.9-12.024H426.69c-5.493,0-11.108-.964-11.108-8.118,0-3.288,1.342-5.5,3.9-6.491a.119.119,0,0,0-.04-.23H418.29c-1.824,0-2.711-.85-2.711-2.6v-6.913h0V818.576H403.128v-3.812h5.606c4.647,0,6.837-.478,6.837-4.843,0-2.155-.521-3.415-1.69-4.083-1.108-.632-2.791-.759-5.147-.759h-5.57v0h-5.606c-5.493,0-11.108-.963-11.108-8.117,0-3.289,1.342-5.5,3.9-6.492a.119.119,0,0,0-.042-.23h-1.154c-1.824,0-2.71-.849-2.71-2.6v-6.913h0V769.881H374V766.07H379.6c4.647,0,6.835-.478,6.835-4.843,0-2.155-.521-3.416-1.69-4.084-1.108-.632-2.79-.759-5.145-.759H368.4c-5.493,0-11.108-.963-11.108-8.117,0-3.29,1.341-5.5,3.9-6.492a.119.119,0,0,0-.041-.23H360c-1.825,0-2.712-.849-2.712-2.6v-6.913h0V721.185H344.836v-3.812h5.606c4.647,0,6.837-.478,6.837-4.843,0-2.155-.521-3.415-1.69-4.083-1.108-.633-2.791-.76-5.147-.76H339.266c-5.493,0-11.108-.964-11.108-8.117,0-3.289,1.342-5.5,3.9-6.492a.119.119,0,0,0-.041-.23h-1.154c-1.824,0-2.711-.849-2.711-2.6v-6.912h0V672.49H315.7v-3.812h5.606c4.647,0,6.836-.479,6.836-4.843,0-2.156-.521-3.416-1.69-4.083-1.108-.633-2.79-.759-5.146-.759H310.133c-5.493,0-11.108-.963-11.108-8.117,0-3.289,1.341-5.5,3.9-6.492a.119.119,0,0,0-.041-.23h-1.154c-1.824,0-2.711-.849-2.711-2.6v-6.911h0V623.794H286.569v-3.812h5.607c4.647,0,6.836-.478,6.836-4.843,0-2.155-.521-3.415-1.69-4.083-1.108-.633-2.79-.76-5.146-.76H286.6v0H281c-5.493,0-11.108-.964-11.108-8.118q0-.193.006-.38h4.267c.025,2.061.549,3.276,1.69,3.928,1.108.633,2.79.759,5.145.759h11.178c5.492,0,11.108.964,11.108,8.117,0,3.289-1.341,5.5-3.9,6.492a.119.119,0,0,0,.04.23h1.154c1.824,0,2.711.85,2.711,2.6v6.911h0v10.852h12.446V645.5h-5.605c-4.648,0-6.837.478-6.837,4.843,0,2.156.521,3.416,1.69,4.083,1.108.633,2.79.759,5.147.759h11.176c5.493,0,11.108.964,11.108,8.117,0,3.289-1.342,5.5-3.9,6.492a.119.119,0,0,0,.04.23h1.154c1.824,0,2.711.849,2.711,2.6v6.911h0V690.38h12.447v3.812h-5.606c-4.647,0-6.837.478-6.837,4.842,0,2.156.521,3.415,1.69,4.083,1.108.633,2.791.759,5.147.759h11.176c5.493,0,11.108.964,11.108,8.118,0,3.288-1.342,5.5-3.9,6.491a.119.119,0,0,0,.042.231h1.154c1.824,0,2.71.849,2.71,2.6v6.913h0v10.852h12.448v3.811H368.4c-4.647,0-6.837.479-6.837,4.843,0,2.157.522,3.416,1.691,4.084,1.108.633,2.789.759,5.145.759h11.2c5.493,0,11.108.963,11.108,8.118,0,3.288-1.342,5.5-3.9,6.491a.119.119,0,0,0,.04.231H388c1.824,0,2.711.849,2.711,2.6v6.913h0v10.852h12.446v3.811h-5.606c-4.647,0-6.837.478-6.837,4.843,0,2.157.521,3.416,1.69,4.084,1.108.633,2.791.759,5.147.759h5.57v0h5.606c5.493,0,11.108.964,11.108,8.118,0,3.288-1.342,5.5-3.9,6.491a.119.119,0,0,0,.041.23h1.154c1.824,0,2.711.85,2.711,2.6v6.913h0v10.851H432.3v3.812H426.69c-4.647,0-6.837.478-6.837,4.842,0,2.156.522,3.416,1.691,4.084,1.108.632,2.79.759,5.146.759h11.176c.883,0,1.768.025,2.633.1v3.811C439.738,853.8,438.863,853.775,437.867,853.775ZM176.5,826.895c2.192,1.115,3.679,3.158,3.679,6.839,0,3.191-1.264,5.372-3.679,6.4Zm258.736,2.533c-5.493,0-11.108-.964-11.108-8.118,0-3.288,1.341-5.5,3.9-6.491a.119.119,0,0,0-.04-.23h-1.154c-1.824,0-2.711-.849-2.711-2.6V805.08h0V794.229H411.674v-3.811h5.605c4.648,0,6.837-.479,6.837-4.843,0-2.156-.521-3.416-1.69-4.084-1.108-.632-2.79-.759-5.147-.759H406.1c-5.493,0-11.108-.963-11.108-8.117,0-3.289,1.342-5.5,3.9-6.492a.119.119,0,0,0-.041-.23H397.7c-1.825,0-2.712-.849-2.712-2.6v-6.913h-.03V745.533H382.514v-3.812h5.606c4.647,0,6.837-.479,6.837-4.843,0-2.156-.522-3.416-1.691-4.084-1.108-.632-2.79-.759-5.146-.759H376.944c-5.493,0-11.108-.964-11.108-8.117,0-3.289,1.341-5.5,3.9-6.492a.119.119,0,0,0-.042-.23h-1.154c-1.824,0-2.711-.85-2.711-2.6v-6.913h0V696.836H353.381v-3.812h5.606c4.647,0,6.836-.478,6.836-4.842,0-2.156-.521-3.416-1.69-4.083-1.108-.633-2.79-.76-5.146-.76h-5.57v0H347.81c-5.493,0-11.108-.963-11.108-8.117,0-3.289,1.342-5.5,3.9-6.492a.119.119,0,0,0-.04-.23H339.41c-1.824,0-2.711-.849-2.711-2.6v-6.913h0V648.141H324.247V644.33h5.607c4.647,0,6.837-.478,6.837-4.843,0-2.155-.522-3.416-1.691-4.083-1.108-.633-2.791-.759-5.146-.759H318.678c-5.493,0-11.108-.964-11.108-8.117,0-3.289,1.341-5.5,3.9-6.492a.119.119,0,0,0-.04-.23h-1.154c-1.824,0-2.711-.85-2.711-2.6V610.3h0v-8.5h4.272v4.685h0v10.852h12.447v3.812h-5.606c-4.647,0-6.837.477-6.837,4.843,0,2.155.522,3.415,1.691,4.083,1.108.633,2.79.76,5.146.76h5.569v0h5.607c5.493,0,11.108.964,11.108,8.118,0,3.288-1.341,5.5-3.9,6.492a.119.119,0,0,0,.041.23h1.154c1.824,0,2.711.849,2.711,2.6v6.912h0v10.852h12.447v3.812H347.81c-4.647,0-6.835.478-6.835,4.843,0,2.156.521,3.416,1.69,4.084,1.108.633,2.79.759,5.145.759h5.571v0h5.606c5.492,0,11.108.964,11.108,8.118,0,3.288-1.34,5.5-3.9,6.491a.119.119,0,0,0,.04.231h1.154c1.824,0,2.711.85,2.711,2.6v6.913h0v10.852H382.55v3.812h-5.606c-4.648,0-6.837.477-6.837,4.841,0,2.157.521,3.416,1.69,4.084,1.108.633,2.79.759,5.147.759h11.176c5.493,0,11.108.963,11.108,8.117,0,3.289-1.342,5.5-3.9,6.492a.119.119,0,0,0,.04.231h1.154c1.824,0,2.711.849,2.711,2.6v6.913h.029v10.852h12.447v3.811H406.1c-4.647,0-6.836.479-6.836,4.843,0,2.157.521,3.416,1.691,4.084,1.107.633,2.789.759,5.145.759h11.176c5.493,0,11.108.963,11.108,8.117,0,3.289-1.341,5.5-3.9,6.492a.119.119,0,0,0,.041.231h1.154c1.824,0,2.711.849,2.711,2.6v6.912h0v10.852H440.5v3.812h-5.265c-4.647,0-6.836.478-6.836,4.843,0,2.155.521,3.415,1.69,4.083,1.108.633,2.79.759,5.146.759H440.5v3.812Zm-2.562-32.465c0-3.289,1.342-5.5,3.9-6.492a.119.119,0,0,0-.041-.23h-1.154c-1.824,0-2.711-.849-2.711-2.6v-6.913h0V769.881H420.219V766.07h5.606c4.647,0,6.837-.478,6.837-4.843,0-2.155-.521-3.416-1.69-4.084-1.108-.632-2.791-.759-5.147-.759h-11.2c-5.493,0-11.108-.963-11.108-8.117,0-3.29,1.341-5.5,3.9-6.492a.119.119,0,0,0-.04-.23h-1.154c-1.824,0-2.711-.849-2.711-2.6v-6.913h0V721.185H391.059v-3.812h5.607c4.647,0,6.836-.478,6.836-4.843,0-2.155-.521-3.415-1.69-4.083-1.108-.633-2.79-.76-5.146-.76H385.489c-5.492,0-11.108-.964-11.108-8.117,0-3.289,1.341-5.5,3.9-6.492a.119.119,0,0,0-.04-.23h-1.154c-1.824,0-2.711-.849-2.711-2.6v-6.912h0V672.49H361.927v-3.812h5.606c4.647,0,6.837-.479,6.837-4.843,0-2.156-.521-3.416-1.69-4.083-1.108-.633-2.791-.759-5.147-.759H356.356c-5.493,0-11.108-.963-11.108-8.117,0-3.289,1.342-5.5,3.9-6.492a.119.119,0,0,0-.042-.23h-1.154c-1.824,0-2.711-.849-2.711-2.6v-6.911h0V623.794H332.793v-3.812H338.4c4.647,0,6.836-.478,6.836-4.843,0-2.155-.521-3.415-1.69-4.083-1.108-.633-2.79-.76-5.146-.76h-5.571v0h-5.605c-5.493,0-11.108-.964-11.108-8.118q0-.193.006-.38h4.266c.025,2.061.549,3.276,1.69,3.928,1.108.633,2.79.759,5.146.759H338.4c5.493,0,11.108.964,11.108,8.117,0,3.289-1.341,5.5-3.9,6.492a.119.119,0,0,0,.04.23H346.8c1.824,0,2.711.85,2.711,2.6v6.911h0v10.852h12.446V645.5h-5.606c-4.647,0-6.837.478-6.837,4.843,0,2.156.521,3.416,1.69,4.083,1.108.633,2.791.759,5.147.759h11.176c5.493,0,11.108.964,11.108,8.117,0,3.289-1.342,5.5-3.9,6.492a.119.119,0,0,0,.042.23h1.154c1.824,0,2.711.849,2.711,2.6v6.911h0V690.38H391.1v3.812h-5.607c-4.647,0-6.836.478-6.836,4.842,0,2.156.522,3.415,1.691,4.083,1.108.633,2.79.759,5.145.759h11.177c5.493,0,11.108.964,11.108,8.118,0,3.288-1.341,5.5-3.9,6.491a.119.119,0,0,0,.041.231h1.154c1.824,0,2.711.849,2.711,2.6v6.913h0v10.852h12.447v3.811h-5.606c-4.647,0-6.837.479-6.837,4.843,0,2.157.522,3.416,1.691,4.084,1.108.633,2.79.759,5.146.759h11.2c5.493,0,11.108.963,11.108,8.118,0,3.288-1.341,5.5-3.9,6.491a.119.119,0,0,0,.041.231h1.154c1.824,0,2.711.849,2.711,2.6v6.913h0v10.852H440.5v3.99c-2.4.377-3.556,1.5-3.556,4.664,0,2.157.522,3.416,1.691,4.084a5.387,5.387,0,0,0,1.865.583v3.828C436.258,804.443,432.673,802.679,432.673,796.963ZM176.5,767.235v-3.811h4.09v3.811Zm252.238-21.7v-3.812h5.606c3.161,0,5.185-.222,6.156-1.737v5.548Zm10.753-12.739c-1.108-.632-2.791-.759-5.147-.759H423.168c-5.493,0-11.108-.964-11.108-8.117,0-3.289,1.342-5.5,3.9-6.492a.119.119,0,0,0-.041-.23h-1.154c-1.824,0-2.711-.85-2.711-2.6v-6.913h0V696.836H399.6v-3.812h5.606c4.647,0,6.837-.478,6.837-4.842,0-2.156-.522-3.416-1.691-4.083-1.108-.633-2.79-.76-5.146-.76h-5.57v0h-5.606c-5.493,0-11.108-.963-11.108-8.117,0-3.289,1.341-5.5,3.9-6.492a.119.119,0,0,0-.042-.23h-1.154c-1.824,0-2.711-.849-2.711-2.6v-6.913h0V648.141H370.472V644.33h5.606c4.647,0,6.836-.478,6.836-4.843,0-2.155-.521-3.416-1.69-4.083-1.108-.633-2.79-.759-5.146-.759H364.9c-5.493,0-11.108-.964-11.108-8.117,0-3.289,1.342-5.5,3.9-6.492a.119.119,0,0,0-.04-.23H356.5c-1.824,0-2.711-.85-2.711-2.6V610.3h0v-8.5h4.272v4.685h0v10.852h12.447v3.812H364.9c-4.647,0-6.835.477-6.835,4.843,0,2.155.521,3.415,1.69,4.083,1.108.633,2.79.76,5.145.76h5.571v0h5.606c5.493,0,11.108.964,11.108,8.118,0,3.288-1.341,5.5-3.9,6.492a.119.119,0,0,0,.04.23h1.154c1.824,0,2.711.849,2.711,2.6v6.912h0v10.852h12.447v3.812h-5.606c-4.648,0-6.837.478-6.837,4.843,0,2.156.521,3.416,1.69,4.084,1.108.633,2.79.759,5.147.759h5.57v0h5.606c5.493,0,11.108.964,11.108,8.118,0,3.288-1.342,5.5-3.9,6.491a.119.119,0,0,0,.04.231h1.154c1.824,0,2.711.85,2.711,2.6v6.913h0v10.852h12.446v3.812h-5.606c-4.647,0-6.837.477-6.837,4.841,0,2.157.521,3.416,1.69,4.084,1.108.633,2.791.759,5.147.759h11.176a20.151,20.151,0,0,1,6.156.754v4.771A2.856,2.856,0,0,0,439.491,732.794Zm-2.208-11.61v-3.812H440.5v3.812ZM176.5,710.067a11.22,11.22,0,0,1,.156,1.926,10.088,10.088,0,0,1-.156,1.82Zm255.213-2.379c-5.493,0-11.108-.964-11.108-8.117,0-3.289,1.341-5.5,3.9-6.492a.119.119,0,0,0-.04-.23h-1.154c-1.824,0-2.711-.849-2.711-2.6v-6.912h0V672.49H408.15v-3.812h5.606c4.648,0,6.837-.479,6.837-4.843,0-2.156-.521-3.416-1.69-4.083-1.108-.633-2.79-.759-5.147-.759H402.58c-5.493,0-11.108-.963-11.108-8.117,0-3.289,1.342-5.5,3.9-6.492a.119.119,0,0,0-.04-.23h-1.154c-1.824,0-2.711-.849-2.711-2.6v-6.911h0V623.794H379.017v-3.812h5.606c4.647,0,6.837-.478,6.837-4.843,0-2.155-.521-3.415-1.69-4.083-1.108-.633-2.791-.76-5.147-.76h-5.57v0h-5.606c-5.493,0-11.108-.964-11.108-8.118q0-.193.006-.38h4.266c.025,2.061.549,3.276,1.689,3.928,1.108.633,2.791.759,5.147.759h11.176c5.493,0,11.108.964,11.108,8.117,0,3.289-1.342,5.5-3.9,6.492a.119.119,0,0,0,.041.23h1.154c1.824,0,2.711.85,2.711,2.6v6.911h0v10.852h12.447V645.5H402.58c-4.647,0-6.837.478-6.837,4.843,0,2.156.522,3.416,1.691,4.083,1.108.633,2.79.759,5.146.759h11.176c5.493,0,11.108.964,11.108,8.117,0,3.289-1.341,5.5-3.9,6.492a.119.119,0,0,0,.042.23h1.154c1.824,0,2.711.849,2.711,2.6v6.911h0V690.38h12.447v3.812h-5.606c-4.647,0-6.836.478-6.836,4.842,0,2.156.521,3.415,1.69,4.083,1.108.633,2.79.759,5.146.759H440.5v3.812h-8.787Zm8.545-24.348c-5.493,0-11.108-.963-11.108-8.117,0-3.289,1.342-5.5,3.9-6.492a.119.119,0,0,0-.042-.23h-1.154c-1.824,0-2.711-.849-2.711-2.6v-6.913h0V648.141H416.7V644.33H422.3c4.647,0,6.836-.478,6.836-4.843,0-2.155-.522-3.416-1.691-4.083-1.108-.633-2.79-.759-5.145-.759H411.125c-5.493,0-11.108-.964-11.108-8.117,0-3.289,1.341-5.5,3.9-6.492a.119.119,0,0,0-.041-.23h-1.154c-1.824,0-2.711-.85-2.711-2.6V610.3h0v-8.5h4.271v4.685h0v10.852h12.448v3.812h-5.607c-4.647,0-6.836.477-6.836,4.843,0,2.155.521,3.415,1.69,4.083,1.108.633,2.79.76,5.146.76h5.57v0H422.3c5.492,0,11.108.964,11.108,8.118,0,3.288-1.341,5.5-3.9,6.492a.119.119,0,0,0,.04.23H430.7c1.824,0,2.711.849,2.711,2.6v6.912h0v10.852H440.5v3.812h-.242c-4.647,0-6.837.478-6.837,4.843,0,2.156.521,3.416,1.69,4.084,1.108.633,2.791.759,5.147.759h.242v3.812ZM437.7,650.876c0-2.782.959-4.8,2.8-5.949v12.264C438.8,656,437.7,654.043,437.7,650.876ZM176.5,645.5v-3.812h.567V645.5Zm263.9-1.342c-1.824,0-2.711-.849-2.711-2.6v-6.911h0V623.794H425.24v-3.812h5.606c4.648,0,6.837-.478,6.837-4.843,0-2.155-.521-3.415-1.69-4.083-1.108-.633-2.79-.76-5.147-.76h-5.57v0H419.67c-5.493,0-11.108-.964-11.108-8.118q0-.193.006-.38h4.266c.025,2.061.549,3.276,1.69,3.928,1.108.633,2.79.759,5.146.759h11.176c3.786,0,7.63.458,9.654,3.085v9.8a5.8,5.8,0,0,1-2.448,1.725.119.119,0,0,0,.042.23h1.154a3.9,3.9,0,0,1,1.252.179v22.649ZM176.5,617.337h9.112v3.812h-5.606a20.325,20.325,0,0,0-3.506.217Z" transform="translate(-176 -601.299)"/></svg>