<svg xmlns="http://www.w3.org/2000/svg" width="150" height="76.54" viewBox="0 0 150 76.54"><defs><style>.a{fill:#82a7ca;}</style></defs><g transform="translate(-499.092 -371.765)"><path class="a" d="M507.621,401.617v4.7H506.3v-1.6h-5.894v1.6h-1.317v-4.7h1.317v1.652H506.3v-1.652Z" transform="translate(0 -17.842)"/><path class="a" d="M500.062,430.473l7.559-2.416v-1.481l-8.529,2.758v2.288l8.529,2.746V432.9Z" transform="translate(0 -32.759)"/><path class="a" d="M502.363,378.171h-3.271v-1.454h3.214v-3.5h-3.214v-1.454h8.529v2.919c0,1.576-.284,3.384-2.5,3.384a1.987,1.987,0,0,1-1.9-.968v.173a.787.787,0,0,1-.863.9m1.261-4.952v1.465c0,1.372.121,1.931,1.34,1.931s1.34-.559,1.34-1.931v-1.465Z" transform="translate(0)"/><path class="a" d="M506.3,459.215v1.652h-5.895v-1.652h-1.317v4.7h1.317v-1.6H506.3v1.6h1.317v-4.7Z" transform="translate(0 -52.266)"/><path class="a" d="M507.621,547.3v-2.288l-8.529-2.758v1.481l7.559,2.416-7.559,2.427v1.469Z" transform="translate(0 -101.896)"/><path class="a" d="M502.363,519.469h-3.271v-1.454h3.214v-3.5h-3.214v-1.453h8.529v2.919c0,1.576-.284,3.384-2.5,3.384a1.987,1.987,0,0,1-1.9-.968v.173a.787.787,0,0,1-.863.9m3.941-3.487v-1.465h-2.68v1.465c0,1.372.121,1.931,1.34,1.931s1.34-.559,1.34-1.931" transform="translate(0 -84.45)"/><path class="a" d="M499.092,485.5v5.485h1.317v-4.032H502.7v3.464h1.317v-3.464H506.3v4.032h1.317V485.5Z" transform="translate(0 -67.975)"/><path class="a" d="M579.314,412.316h-3.131a.322.322,0,0,1-.111-.623c6.951-2.682,10.591-8.694,10.591-17.619,0-19.414-15.241-22.032-30.149-22.032H541.3v10.345h15.215c6.395,0,10.962.345,13.967,2.062,3.174,1.813,4.589,5.231,4.589,11.082,0,11.847-5.942,13.144-18.555,13.144H541.3v10.345h33.78V448.47h11.594V419.362c0-4.741-2.407-7.046-7.358-7.046" transform="translate(-25.226 -0.166)"/><path class="a" d="M682.875,426.74h10.7v-1.333h-9.145V419.53h8.64V418.2h-8.64V412.6h9.145v-1.334h-10.7Z" transform="translate(-109.842 -23.612)"/><path class="a" d="M721.254,417.806c-3.74-.854-4.343-1.582-4.343-2.995,0-1.792,1.448-2.862,3.873-2.862,2.624,0,4.014,1.246,4.247,3.811l0,.037h1.575l0-.044c-.276-3.361-2.3-5.137-5.866-5.137-3.37,0-5.382,1.584-5.382,4.239,0,2.933,2.109,3.554,5.55,4.326,3.034.679,4.387,1.279,4.387,3.038,0,1.86-1.56,3.015-4.071,3.015-2.9,0-4.669-1.685-4.862-4.623l0-.038h-1.619l0,.042c.178,3.713,2.593,5.93,6.46,5.93,3.43,0,5.646-1.707,5.646-4.349,0-3.139-3.233-3.863-5.593-4.392" transform="translate(-128.886 -23.22)"/><path class="a" d="M758.542,411.271H746.37V412.6h5.32V426.74h1.531V412.6h5.32Z" transform="translate(-147.791 -23.611)"/><path class="a" d="M782.822,411.271h-1.349l-6.716,15.413-.024.056h1.693l1.67-3.957h8.1l1.682,3.933.01.024h1.671l-6.73-15.445Zm2.793,10.178h-6.935l3.479-8.145Z" transform="translate(-164.742 -23.612)"/><path class="a" d="M809.7,412.6h5.32V426.74h1.532V412.6h5.32v-1.334H809.7Z" transform="translate(-185.642 -23.611)"/><path class="a" d="M856.027,412.6v-1.334h-10.7V426.74h10.7v-1.333h-9.145v-5.877h8.64V418.2h-8.64V412.6Z" transform="translate(-206.935 -23.611)"/></g></svg>