<svg xmlns="http://www.w3.org/2000/svg" width="16.923" height="16.923" viewBox="0 0 16.923 16.923"><g transform="translate(0.001 0)"><path d="M12.341,0H4.58A4.586,4.586,0,0,0,0,4.581v7.761A4.586,4.586,0,0,0,4.58,16.923h7.761a4.586,4.586,0,0,0,4.581-4.581V4.581A4.586,4.586,0,0,0,12.341,0ZM15.93,12.342a3.593,3.593,0,0,1-3.589,3.589H4.58A3.593,3.593,0,0,1,.991,12.342V4.581A3.593,3.593,0,0,1,4.58.992h7.761A3.593,3.593,0,0,1,15.93,4.581Zm0,0"/><path d="M120.631,116a4.627,4.627,0,1,0,4.627,4.627A4.633,4.633,0,0,0,120.631,116Zm0,8.263a3.635,3.635,0,1,1,3.635-3.635A3.639,3.639,0,0,1,120.631,124.267Zm0,0" transform="translate(-112.171 -112.17)"/><path d="M359.344,66.285a1.367,1.367,0,1,0,1.367,1.367A1.369,1.369,0,0,0,359.344,66.285Zm0,1.743a.375.375,0,1,1,.375-.375A.376.376,0,0,1,359.344,68.028Zm0,0" transform="translate(-346.145 -64.094)"/></g></svg>