<svg xmlns="http://www.w3.org/2000/svg" width="750.513" height="531.027" viewBox="0 0 750.513 531.027"><g transform="translate(-78.826 522.815)"><g transform="translate(78.826 -522.815)"><path  d="M105.98-550.057H101.4v-.542a10.914,10.914,0,0,0,7.887-10.3c0-6.623-4.475-11.921-14.45-11.921H78.826v42.146h5.539v-16.437h19.67a.139.139,0,0,1,.138.138v16.3h5.539v-15.594C109.713-548.732,108.388-550.057,105.98-550.057Zm-21.615-1.686v-16.377H94.3c7.505,0,9.633,3.673,9.633,8.188,0,4.576-3.191,8.188-9.814,8.188Z" transform="translate(-78.826 572.815)"/><path  d="M703.791-535.486h-9.513V-568h9.513v-4.817H679.346V-568h9.513v32.512h-9.513v4.817h24.444Z" transform="translate(-317.787 572.815)"/><path  d="M303.81-535.486H294.3V-568h9.513v-4.817H279.366V-568h9.513v32.512h-9.513v4.817H303.81Z" transform="translate(-158.626 572.815)"/><path  d="M492.386-530.67l13.487-42.145h-5.72l-12.1,38.593h-.963l-12.162-38.593h-5.72l13.426,42.145Z" transform="translate(-234.168 572.815)"/><path  d="M1089.481-550.057h-4.576v-.542a10.914,10.914,0,0,0,7.887-10.3c0-6.623-4.475-11.921-14.45-11.921h-16.015v42.146h5.539v-16.437h19.669a.138.138,0,0,1,.139.138v16.3h5.539v-15.594C1093.214-548.732,1091.889-550.057,1089.481-550.057Zm-21.615-1.686v-16.377h9.934c7.506,0,9.633,3.673,9.633,8.188,0,4.576-3.191,8.188-9.814,8.188Z" transform="translate(-470.184 572.815)"/><path  d="M1273.192-545.36h16.681l4.784,14.691h5.84l-13.968-42.146h-9.694l-13.968,42.146h5.539Zm7.785-23.9h1.11l6.315,19.387h-13.739Z" transform="translate(-549.984 572.815)"/><path  d="M869.187-530.67h26.431v-4.817H874.726v-13.847h18v-4.817h-18v-13.908h20.892v-4.756H869.187Z" transform="translate(-393.329 572.815)"/></g><g transform="translate(81.054 -35.74)"><path  d="M286.661,348.643a14.1,14.1,0,0,0-13.306,8.188h-.662v-7.285h-4.877v19.447a3.733,3.733,0,0,0,3.733,3.733h15.112V368.15H273.295v-1.565c.181-7.767,5.3-13.125,13.065-13.125,8.67,0,14.089,6.864,14.089,17.159s-5.78,17.159-14.39,17.159a13.229,13.229,0,0,1-11.921-7.767l-4.817,2.529c3.071,6.262,9.272,10.055,16.738,10.055,11.861,0,20.11-8.971,20.11-21.976S298.462,348.643,286.661,348.643Z" transform="translate(-156.257 -348.643)"/><path  d="M82.526,354.96h20.892v13.848h-18v4.817h18v13.908H82.526v4.756h26.431V350.143H82.526Z" transform="translate(-82.526 -349.24)"/><path  d="M1067.677,354.96h9.512v32.512h-9.512v4.817h24.444v-4.817h-9.513V354.96h9.513v-4.817h-24.444Z" transform="translate(-474.54 -349.24)"/><path  d="M495.712,364.834H479.031l-4.785-14.691h-5.84l13.968,42.145h9.694l13.968-42.145H500.5Zm-7.786,23.9h-1.109L480.5,369.349h13.739Z" transform="translate(-236.077 -349.24)"/><path  d="M1277.154,350.143l-13.487,42.145h5.72l12.1-38.593h.964l12.162,38.593h5.719l-13.426-42.145Z" transform="translate(-552.53 -349.24)"/><path d="M700.325,350.143H677.747v4.817h20.772a.18.18,0,0,1,.18.181v37.148h5.418V353.936A3.792,3.792,0,0,0,700.325,350.143Z" transform="translate(-319.378 -349.24)"/><path d="M891.815,350.143H869.237v4.817h20.772a.181.181,0,0,1,.181.181v37.148h5.419V353.936A3.793,3.793,0,0,0,891.815,350.143Z" transform="translate(-395.577 -349.24)"/></g></g></svg>