<svg xmlns="http://www.w3.org/2000/svg" width="20.305" height="14.566" viewBox="0 0 20.305 14.566"><g transform="translate(-0.999 -5.5)"><path d="M20.4,8.123a2.439,2.439,0,0,0-1.7-1.755A63.189,63.189,0,0,0,11.152,6s-6.037,0-7.546.4A2.439,2.439,0,0,0,1.9,8.159,25.447,25.447,0,0,0,1.5,12.8a25.446,25.446,0,0,0,.4,4.677,2.439,2.439,0,0,0,1.7,1.685c1.509.4,7.546.4,7.546.4s6.037,0,7.546-.4a2.439,2.439,0,0,0,1.7-1.755,25.446,25.446,0,0,0,.4-4.607,25.446,25.446,0,0,0-.4-4.677Z" transform="translate(0 0)"/><path d="M14.625,18.459l5.045-2.869L14.625,12.72Z" transform="translate(-5.448 -2.789)"/></g></svg>