<svg xmlns="http://www.w3.org/2000/svg" width="70.442" height="48.817" viewBox="0 0 70.442 48.817"><defs><style>.a{fill:#9bb8d3;}</style></defs><path class="a" d="M41.44,37.5a24.414,24.414,0,1,1,.006,43.768A24.405,24.405,0,1,1,41.44,37.5ZM46.362,40.7a24.107,24.107,0,0,1,7.8,12.156H49.1a19.586,19.586,0,0,0-7.662-9.8,19.607,19.607,0,0,0-7.65,9.8l-5.055,0a24.322,24.322,0,0,1,7.827-12.178,19.874,19.874,0,0,0-5.943-.888,19.589,19.589,0,1,0,5.869,38.284A24.291,24.291,0,0,1,27.94,61.339H39.553v4.869l-5.648,0a19.638,19.638,0,0,0,7.551,9.506,19.514,19.514,0,0,0,7.535-9.506l-5.648,0V61.339H54.955a24.3,24.3,0,0,1-8.628,16.706A19.589,19.589,0,1,0,46.362,40.7Z" transform="translate(-6.233 -34.976)"/></svg>