<svg xmlns="http://www.w3.org/2000/svg" width="136.183" height="38.365" viewBox="0 0 136.183 38.365"><defs><style>.a{fill:#9bb8d3;}</style></defs><g transform="translate(-2.147 -180.818)"><path class="a" d="M138.5,213.31v0l-1.088,3.856Zm5.6,8.371-1.2-.007Zm-.308,5.759h0l-7.183.026Zm1.506-5.752-1.2-.007Zm-.876,5.262,1.251-4.772-1.251,4.773h0Zm26.446-21.975-2.331,10.957Zm-5.991,0-1.77,8.185,1.77-8.186Z" transform="translate(-97.448 -17.506)"/><path class="a" d="M200.6,203.185h-4.984a.656.656,0,0,0-.61.492l-1.77,8.186-1.77,8.186a.653.653,0,0,1-.609.491h-3.528c-3.49,0-3.086-2.414-2.372-5.721l.021-.1.078-.417c0-.027.01-.054.015-.078l.159-.849.171-.91c.052-.274.131-.675.182-.927l.8-3.93.8-3.93a.4.4,0,0,0-.4-.494h-5.116a.65.65,0,0,0-.607.493l-1.1,5.219-1.1,5.218a.028.028,0,0,0,0,.008l-.1.485c-1.267,5.785-.931,11.3,5.955,11.473.113,0,.2,0,.2,0h10.809a.652.652,0,0,0,.608-.493l2.331-10.956L201,203.679A.392.392,0,0,0,200.6,203.185ZM220.48,220.6a.4.4,0,0,1,.4.492l-.484,2.366m-.483,2.367.484-2.367-.484,2.368Zm-.607.5h0c-1.466.012-5.874.045-9.187.045C214.155,226.366,219.308,226.321,219.309,226.321Zm-12.158-8.769c0-.259.291-.705.568-.705l-.624-.01C206.815,219.657,207.15,217.552,207.15,217.552Z" transform="translate(-127.577 -16.21)"/><path class="a" d="M84.049,226.214h0Zm9.9-5.767a.4.4,0,0,1,.4.492l-.484,2.366-.079.386m-7.382,2.517h0Zm-1.224,0h0Zm-.373,0h0Zm-.38,0h0Zm.682,0h0ZM86.388,226.207Zm6.394-.038c-1.075.008-3.729.029-6.376.04C89.052,226.2,91.707,226.177,92.783,226.169Zm.6-.5.405-1.982-.406,1.983v0Zm-8.692.541h0Zm-.744,0h0Zm.376,0h0Zm-72.907-8.754.774-3.432-.885,3.923-.85,4,.745-3.5C11.262,218.173,11.36,217.729,11.421,217.459Zm9.266-14.483H15.214a.662.662,0,0,0-.615.491l-.519,2.291-.519,2.292a.385.385,0,0,0,.392.491H19.47a.656.656,0,0,0,.611-.491l.5-2.291.5-2.289h0A.389.389,0,0,0,20.687,202.976ZM19.5,210.6h0l-1.605,7.427ZM3.6,235.2s2.759.036,4.513.036c-1.332,0-3.533-.025-4.515-.036h0ZM12.969,210.6l-.775,3.432Z" transform="translate(-1.048 -16.058)"/><path class="a" d="M18.052,218.07H12.535a.661.661,0,0,0-.614.491l-.775,3.432-.774,3.432c-.061.27-.159.714-.216.984l-.745,3.5-.744,3.5c-.058.27-.177.706-.265.969,0,0-1.03,3.067-2.763,3.031l-.216,0-1.5-.028h0a.657.657,0,0,0-.619.48l-.572,2.4-.571,2.4a.385.385,0,0,0,.384.495c.982.012,3.183.038,4.515.038,4.328,0,6.609-2.4,8.072-9.3l1.712-7.92,1.605-7.427a.39.39,0,0,0-.4-.491ZM96.418,233.9a.39.39,0,0,1-.4-.493l4.15-19.439m2.014,19.438,1.679-8.3Z" transform="translate(0 -24.024)"/><path class="a" d="M343.189,232.815a2.143,2.143,0,0,1,.045-.739l1.97-9.227-2.075,9.719a.391.391,0,0,0,.4.493h.5C343.753,233.061,343.222,232.95,343.189,232.815Zm5.777.135a2.618,2.618,0,0,1-.778.11h.5a.641.641,0,0,0,.6-.493l.1-.493c-.054.271-.277.815-.428.876Zm1.168-4.531.74-3.662a.025.025,0,0,1,0,.007Zm16.375-13.988.229.944a.382.382,0,0,1-.388.491m-16.955,16.208.74-3.655Zm16.887-18.61.226.968Zm-15.407,11.293c.055-.271.146-.71.2-.979l.791-3.706-.9,4.2Zm-3.528-11.947c-.055.262-.126.592-.174.811l-1.968,9.228,2.075-9.72Z" transform="translate(-247.108 -23.186)"/><path class="a" d="M366.888,208.552l-.228-.944-.226-.968-.115-.49c-.448-1.741-1.762-2.746-4.618-2.746l-4.447,0-4.095,0H348.55a.649.649,0,0,0-.608.492l-.2.963-.24,1.137-.067.318-2.075,9.72-1.969,9.227a2.148,2.148,0,0,0-.045.739c.033.136.564.247.843.247h4.157a2.635,2.635,0,0,0,.778-.111c.151-.061.373-.6.429-.876l.74-3.655.74-3.654a.02.02,0,0,1,0-.006l.1-.488.9-4.2.792-3.709a.652.652,0,0,1,.607-.491l13.081-.006A.382.382,0,0,0,366.888,208.552Z" transform="translate(-247.26 -16.362)"/><path class="a" d="M185.416,183.65l-1.006,0h-4.187a1.067,1.067,0,0,0-.786.416l-9.258,13.563c-.157.229-.336.195-.4-.075l-.681-2.988a.664.664,0,0,0-.615-.491h-5.952a.36.36,0,0,0-.366.483l2.667,9.342a2.22,2.22,0,0,1,.013.971l-1.163,4.522a.372.372,0,0,0,.378.488h5.882a.685.685,0,0,0,.628-.488l1.163-4.522a2.973,2.973,0,0,1,.429-.889l15.03-19.947c.167-.221.076-.4-.2-.4l-1.58.01Zm-47.283,11.7v-.006a.608.608,0,0,1-.589.521H130a.324.324,0,0,1-.355-.4c0-.006,0-.012.006-.017l-.006,0c0-.009,0-.017.005-.025s.015-.053.034-.128c.721-1.916,2.189-3.173,4.948-3.173,3.106,0,3.713,1.517,3.5,3.223Zm-2.214-8.71c-9.686,0-11.98,5.879-13.268,11.813-1.288,6.048-1.177,11.7,8.846,11.7h1.591l1.2,0h.02c2.646-.01,5.3-.03,6.376-.039a.655.655,0,0,0,.6-.495l.406-1.983.079-.385.484-2.366a.4.4,0,0,0-.4-.493h-9.01c-3.584,0-4.648-.952-4.256-3.752h14.4v0l.01,0a.6.6,0,0,0,.524-.373.563.563,0,0,0,.035-.126l0,0c2.137-8.066,1.523-13.5-7.639-13.5Zm-45.777,8.679-.136.483v0l-1.088,3.854-1.087,3.854a.705.705,0,0,1-.64.484H81.433c-4.366,0-5.43-3.415-4.366-8.453,1.063-5.152,3.148-8.355,7.445-8.679,5.873-.443,7.048,3.688,5.63,8.456Zm3.948,8.38s2.714-6.59,3.33-10.4c.844-5.1-1.707-12.485-11.561-12.485-9.8,0-14.053,7.055-15.676,14.725-1.623,7.725.5,14.5,10.246,14.445l7.685-.029,7.183-.026a.7.7,0,0,0,.63-.489l1.251-4.773a.372.372,0,0,0-.376-.489l-1.2-.006-1.2-.006a.308.308,0,0,1-.341-.356.454.454,0,0,1,.029-.112h0Z" transform="translate(-48.95)"/><path class="a" d="M332.782,247.048a.33.33,0,1,1-.33-.329A.331.331,0,0,1,332.782,247.048Z" transform="translate(-239.14 -47.76)"/></g></svg>