<svg xmlns="http://www.w3.org/2000/svg" width="141.912" height="20.626" viewBox="0 0 141.912 20.626"><defs><style>.a{fill:#9bb8d3;}</style></defs><path class="a" d="M23.729,7.509c-.523,1.477-3.821,3.02-11.922,1.188l1.054,4.784c8.1,1.472,12.9.261,15.644-2.618,2.031-2.134,2.429-4.894.76-7.006C27.5,1.621,23.589,0,18.651,0,11.587,0,6.553,2.047,3.758,9.727L0,20.052H6.574L10.314,9.609C11.848,5.314,15.072,4.6,18.651,4.6c3.753,0,5.564,1.545,5.078,2.906Zm65.1,4.532-.255-.109a12.652,12.652,0,0,1,4.655-.9,10.7,10.7,0,0,1,4.007.68c.22.123.421.318.313.559-.4.9-6.263.847-8.72-.225Zm12.009-2.414a16.666,16.666,0,0,0-6.621-1.6c-5.2-.214-11.123,1.559-12.3,5.749-.682,2.41,1.653,5.666,7.736,6.589a27.573,27.573,0,0,0,11.359-.8l1.3-3.578c-7.057,2.425-16.281,1.721-15.972-1.912,3.414,2.191,8.4,1.983,12.085,1.379C104.806,14.416,104.713,11.7,100.833,9.627Zm10.773,2.414-.252-.109a12.638,12.638,0,0,1,4.652-.9,10.694,10.694,0,0,1,4.007.68c.219.123.42.318.312.559C119.927,13.164,114.065,13.114,111.606,12.041Zm12.009-2.414a16.657,16.657,0,0,0-6.621-1.6c-5.195-.214-11.12,1.559-12.3,5.749-.681,2.41,1.656,5.666,7.736,6.589a27.574,27.574,0,0,0,11.359-.8l1.3-3.578c-7.058,2.425-16.281,1.721-15.973-1.912,3.415,2.191,8.4,1.983,12.084,1.379C127.588,14.416,127.5,11.7,123.615,9.627Zm4.8,3.076-2.608,7.353h6.019l2.006-5.658c.493-1.435.911-2.509,2.666-2.509h4.229L141.912,8.5h-7.79A5.694,5.694,0,0,0,128.414,12.7ZM27.593,20.055h6.232L38.036,8.5H31.8Zm40.433-6.218a4.006,4.006,0,0,1,3.865-2.326c1.521,0,2.976.9,2.413,2.444l-2.225,6.1H78.1l2.257-6.2c1.171-3.217-1.365-5.882-7.049-5.882-6.327,0-9.913,2.067-11.295,5.854l-2.267,6.224H65.76l2.266-6.218ZM49.462,11.629c2.432.1,4.392,1.326,4.042,2.916-.335,1.533-2.705,2.576-5.165,2.471-2.432-.1-4.39-1.329-4.044-2.919.338-1.529,2.707-2.575,5.167-2.468Zm.848-3.592c-6.268-.266-11.853,2.414-12.6,5.84-.741,3.372,3.493,6.464,9.786,6.73,6.266.267,11.853-2.412,12.6-5.84C60.835,11.4,56.6,8.3,50.309,8.037Z"/></svg>