<svg xmlns="http://www.w3.org/2000/svg" width="132.559" height="39.448" viewBox="0 0 132.559 39.448"><defs><style>.a{fill:#9bb8d3;}</style></defs><path class="a" d="M113.294,34.732H33.2l6.388,6.388Zm12.857-4.073V17.883a4.084,4.084,0,1,1,8.145,0V30.659h4.951V17.883c0-5.27-3.593-9.5-8.864-9.5a7.85,7.85,0,0,0-4.232,1.358V8.859H121.2v21.72h4.951ZM109.781,8.3c-5.75,0-9.822,5.031-9.822,11.419,0,6.708,5.111,11.419,10.3,11.419,2.635,0,5.909-.878,8.7-4.871l-4.392-2.555c-3.354,4.951-9.024,2.475-9.662-2.555h14.214C120.4,13.491,115.37,8.3,109.781,8.3Zm4.312,8.624h-8.864C106.267,11.893,113.134,11.574,114.093,16.924Z" transform="translate(-6.688 -1.672)"/><path class="a" d="M106.9,24.24a3.011,3.011,0,0,1-1.677.559,2.434,2.434,0,0,1-2.316-2.635V12.821h4.232V7.63H102.91V2.2H97.959V7.63H95.324v5.191h2.635v9.343a7.42,7.42,0,0,0,7.347,7.746,10.428,10.428,0,0,0,4.791-1.358ZM88.7,7.63V20.407a4.084,4.084,0,1,1-8.145,0V7.63H75.6V20.407c0,5.27,3.593,9.5,8.864,9.5A7.85,7.85,0,0,0,88.7,28.552v.8h4.951V7.63Z" transform="translate(-15.23 -0.443)"/><path class="a" d="M56,17.408,64.467,7.187H57.6L51.61,14.773V0H46.579V28.987H51.61V20.043l7.347,8.944h6.867ZM38.834,7.187v.958A8.028,8.028,0,0,0,34.2,6.628c-5.59,0-9.9,5.111-9.9,11.419s4.232,11.419,9.9,11.419a7.843,7.843,0,0,0,4.632-1.517v.958h4.951V7.187ZM34.122,24.276c-2.795,0-4.791-2.715-4.791-6.149s2-6.149,4.791-6.149,4.711,2.715,4.711,6.149c.08,3.434-1.917,6.149-4.711,6.149Z" transform="translate(-4.895)"/><path class="a" d="M5.191,29.43V20.966H8.784l6.309,8.385h6.468L13.895,19.209A9.385,9.385,0,0,0,8.465,2.2H0V29.351H5.191Zm0-22.04H8.544a4.232,4.232,0,0,1,0,8.465H5.191Z" transform="translate(0 -0.443)"/></svg>