<svg xmlns="http://www.w3.org/2000/svg" width="106.29" height="24.786" viewBox="0 0 106.29 24.786"><defs><style>.a{fill:#9bb8d3;}</style></defs><g transform="translate(-15.9 -11.4)"><path class="a" d="M36.86,32.232a3.022,3.022,0,0,1-2.445,3.027H22.541L37.476,11.4H17.507v3.954h1.025c0-1.671,1.08-3.023,2.134-3.023H30.925L15.9,36.186H37.565V32.232H36.86" transform="translate(0 0)"/><g transform="translate(37.974 11.4)"><path class="a" d="M918.3,576.1Z" transform="translate(-902.008 -552.092)"/><path class="a" d="M559.9,34.256,548.343,11.4l-10.59,22.873a2.923,2.923,0,0,1-2.653,1.135v.774h5.637v-.774c-1.046,0-2.168-.519-1.9-1.139l2.547-5.523h9.77l2.776,5.51c.315.557-1.093,1.156-2.542,1.156v.774h11.734l0-.774C561.353,35.408,560.269,34.855,559.9,34.256Zm-18.086-6.4,4.226-9.277,4.719,9.277Z" transform="translate(-535.1 -11.4)"/></g><path class="a" d="M1226,12.357c1.718,0,3.138.442,3.138.978,0,4.251-.009,20.9,0,20.9,0,.57-1.4,1.2-3.121,1.2l0,.748H1237.5v-.7c-1.7,0-3.087-.68-3.087-1.25V12.148h3.312A5.792,5.792,0,0,1,1243.5,17.8a5.619,5.619,0,0,1-5.778,5.446h-2.292S1243.193,35,1243.206,35a3.94,3.94,0,0,1,.459,1.182h8.371v-.7a3.473,3.473,0,0,1-2.921-1.254l-7.474-9.753a6.712,6.712,0,0,0,6.364-6.581,6.707,6.707,0,0,0-6.9-6.5H1226v.957" transform="translate(-1158.653)"/><path class="a" d="M1881.5,34.256,1869.943,11.4l-10.59,22.873a2.92,2.92,0,0,1-2.653,1.161v.748h5.637v-.7c-1.046,0-2.164-.6-1.9-1.216l2.547-5.523h9.77l2.776,5.51c.319.557-1.093,1.182-2.542,1.182h0v.748h11.734l0-.723C1882.953,35.463,1881.869,34.855,1881.5,34.256Zm-18.09-6.4,4.226-9.277,4.719,9.277Z" transform="translate(-1762.539 0)"/></g></svg>