<svg xmlns="http://www.w3.org/2000/svg" width="118.457" height="56.466" viewBox="0 0 118.457 56.466"><defs><style>.a{fill:#9bb8d3;}</style></defs><path class="a" d="M22.128,44.058V55.071s-3.639-10.322-3.723-10.592a.6.6,0,0,0-.661-.421H14.274V57.466h2.343V46.6S20.2,56.78,20.292,57.045a.594.594,0,0,0,.612.421H24.47V44.058Zm12.317,0V57.466H37.2l0-5.705h4.962V49.309l-4.958.007v-2.79h5.032V44.058Zm63.687,0v2.578h3.076V57.465h2.8V46.636h3.07V44.058ZM51.927,57.465h2.965v-13.4H51.927Zm33.776,0h2.966v-13.4H85.7Zm30.8,0h2.952v-13.4H116.5ZM1,57.465H3.966v-13.4H1ZM75.457,44.058H73.115V55.071s-3.636-10.322-3.723-10.592a.6.6,0,0,0-.653-.421H65.26V57.466H67.6V46.6s3.593,10.182,3.677,10.447a.6.6,0,0,0,.61.421h3.571ZM72.369,22.051c-1.13-1.464-12.139-16.3-12.139-16.3S49.179,20.712,48.122,22.084c-4.082-.348-11.174-3.071-11.174-7.8,0-6.008,10.3-11.572,23.281-11.572,13.635,0,23.283,5.564,23.283,11.572,0,4.725-7.057,7.415-11.144,7.763M60.23,1C43.46,1,31.788,7.55,31.788,16.034c0,3.958,2.552,8.435,7.968,11.128,5.027,2.5,12.129,3.367,13.154,3.493L60.23,9.086l7.394,21.569c1.022-.126,8.059-1,13.087-3.493,5.413-2.692,7.966-7.17,7.966-11.128C88.677,7.55,77,1,60.23,1" transform="translate(-1 -1)"/></svg>